<?xml version="1.0" encoding="utf-8"?>
<!-- Generator: Adobe Illustrator 27.0.0, SVG Export Plug-In . SVG Version: 6.00 Build 0)  -->
<svg version="1.1" id="Layer_1" xmlns="http://www.w3.org/2000/svg" xmlns:xlink="http://www.w3.org/1999/xlink" x="0px" y="0px"
	 viewBox="0 0 125.7 88" style="enable-background:new 0 0 125.7 88;" xml:space="preserve">
<style type="text/css">
	.st0{fill:#212736;}
</style>
<g>
	<g id="XMLID_00000024722265504299884190000010116780416575718021_">
		<g id="XMLID_00000047031828157087841730000016321266094798789293_">
			<path id="XMLID_00000049913997876015185170000006910707551227147146_" class="st0" d="M71.2,42.4c0,0,0,0,0.1,0
				c0.1,0,0.2,0,0.3,0c0.3,0,0.7,0.1,1.3,0.3c0.5,0.2,1.2,0.5,1.9,0.8c0.4,0.2,0.7,0.3,1.2,0.4c0.2,0.1,0.4,0.1,0.7,0.1
				c0.2,0,0.5,0.1,0.7,0.1c0.3,0.1,0.5,0.1,0.8,0.3c0.3,0.1,0.5,0.4,0.7,0.6c0.2,0.2,0.4,0.4,0.5,0.6c0.2,0.1,0.4,0.3,0.6,0.3
				c0.2,0.1,0.5,0.1,0.7,0.1c0.3,0,0.5-0.1,0.8-0.2c0.5-0.2,1-0.5,1.6-0.9c0.3-0.2,0.5-0.4,0.7-0.6c0.2-0.2,0.3-0.4,0.4-0.7
				c0.2-0.5,0.1-1.2,0.1-1.9c0-0.7-0.1-1.4-0.3-2c0,0,0-0.1,0-0.1c0,0,0-0.1,0-0.1c0,0,0,0,0-0.1c0,0,0,0,0-0.1
				c-0.1-0.1-0.2-0.2-0.3-0.3c-0.2-0.2-0.6-0.3-0.9-0.5c-0.2-0.1-0.4-0.2-0.6-0.3l-0.1-0.1c0,0-0.1-0.1-0.1-0.1l-0.2-0.2
				c-0.3-0.2-0.6-0.5-0.8-0.7c-0.5-0.5-1.1-1-1.6-1.4c-0.1-0.1-0.3-0.2-0.4-0.3c-0.1-0.1-0.3-0.2-0.4-0.4c-0.3-0.2-0.5-0.5-0.8-0.7
				c-0.5-0.5-1-1-1.5-1.4c-0.5-0.5-0.9-0.9-1.3-1.4c-0.2-0.2-0.4-0.4-0.6-0.7c-0.2-0.2-0.4-0.4-0.6-0.7c-0.2-0.2-0.4-0.5-0.5-0.7
				c-0.2-0.3-0.3-0.5-0.4-0.7c-0.1-0.2-0.3-0.4-0.4-0.6c-0.1-0.2-0.3-0.3-0.5-0.4c-0.4-0.2-0.8-0.4-1.3-0.6
				c-0.4-0.2-0.8-0.4-1.2-0.6c-0.7-0.4-1.3-0.8-1.7-1.1c-0.5-0.3-0.8-0.6-1-0.8c-0.1-0.1-0.2-0.2-0.2-0.2C66,24.5,66,24.5,66,24.5
				s0,0,0.1,0.1c0.1,0,0.1,0.1,0.3,0.2c0.2,0.2,0.6,0.4,1.1,0.7c0.5,0.3,1.1,0.6,1.8,0.9c0.4,0.2,0.8,0.3,1.2,0.5
				c0.4,0.1,0.9,0.3,1.4,0.5c0.2,0.1,0.5,0.3,0.7,0.5c0.2,0.2,0.4,0.4,0.5,0.7c0.2,0.2,0.3,0.5,0.5,0.7c0.2,0.2,0.3,0.4,0.5,0.6
				c0.2,0.2,0.4,0.4,0.6,0.6c0.2,0.2,0.5,0.4,0.7,0.6c0.5,0.4,0.9,0.9,1.4,1.3c0.5,0.5,1,0.9,1.5,1.4c0.3,0.2,0.5,0.4,0.8,0.7
				c0.1,0.1,0.3,0.2,0.4,0.3c0.1,0.1,0.3,0.2,0.4,0.3c0.6,0.4,1.2,0.9,1.7,1.4c0.3,0.2,0.6,0.5,0.8,0.7l0.2,0.2c0,0,0.1,0.1,0.1,0.1
				l0.1,0.1c0.1,0.1,0.3,0.2,0.4,0.3c0.3,0.2,0.7,0.3,1.1,0.6c0.2,0.1,0.4,0.3,0.5,0.5l0.1,0.2c0,0.1,0.1,0.1,0.1,0.2
				c0,0.1,0.1,0.1,0.1,0.2c0,0,0,0.1,0.1,0.2c0.3,0.8,0.3,1.6,0.3,2.3c0,0.4,0,0.7,0,1.1c0,0.4-0.1,0.8-0.2,1.2
				c-0.1,0.4-0.3,0.8-0.6,1.1c-0.3,0.3-0.6,0.5-0.9,0.7c-0.6,0.3-1.2,0.7-1.8,0.9c-0.7,0.2-1.4,0.3-2,0c-0.2-0.1-0.3-0.1-0.5-0.2
				c-0.1-0.1-0.3-0.2-0.4-0.3c-0.2-0.2-0.4-0.5-0.6-0.7c-0.2-0.2-0.3-0.4-0.5-0.5c-0.2-0.1-0.4-0.2-0.6-0.3
				c-0.2-0.1-0.5-0.1-0.7-0.2c-0.2-0.1-0.5-0.1-0.7-0.2c-0.4-0.2-0.8-0.3-1.2-0.5c-0.7-0.4-1.3-0.7-1.8-1c-0.5-0.2-0.9-0.4-1.2-0.4
				c-0.1,0-0.3-0.1-0.3-0.1C71.2,42.5,71.2,42.4,71.2,42.4z"/>
		</g>
		<g id="XMLID_00000033349168723793044500000000184081959975659409_">
			<path id="XMLID_00000007397694376303744460000000547411540847343549_" class="st0" d="M71.9,41.6c0,0,0,0-0.1,0.1
				c-0.1,0.1-0.1,0.2-0.3,0.4c-0.1,0.2-0.3,0.3-0.5,0.5c-0.2,0.2-0.5,0.4-0.8,0.6c-0.1,0-0.2,0.1-0.2,0.1c-0.1,0-0.2,0.1-0.3,0.1
				c0,0-0.1,0-0.1,0.1c0,0-0.1,0-0.1,0.1c-0.1,0-0.2,0.1-0.3,0.1c-0.4,0.1-0.8,0.2-1.3,0.3c-0.5,0-1,0-1.5-0.1c-0.1,0-0.1,0-0.2,0
				c-0.1,0-0.1,0-0.2-0.1c-0.1,0-0.3-0.1-0.4-0.1c-0.3-0.1-0.5-0.2-0.7-0.3c-0.5-0.2-0.9-0.5-1.3-0.8c-0.1-0.1-0.2-0.2-0.3-0.2
				c-0.1-0.1-0.2-0.2-0.3-0.2c-0.2-0.2-0.3-0.3-0.5-0.5c-0.2-0.2-0.3-0.4-0.4-0.5c-0.1-0.2-0.3-0.4-0.4-0.5
				c-0.1-0.1-0.1-0.2-0.2-0.3c-0.1-0.1-0.1-0.2-0.1-0.3c-0.1-0.2-0.2-0.3-0.2-0.5C61.1,39.3,61,39.1,61,39c0-0.2-0.1-0.3-0.1-0.4
				c0-0.1,0-0.3-0.1-0.4c0-0.1,0-0.2,0-0.3c0-0.4,0-0.6,0-0.6s0.1,0.2,0.2,0.6c0,0.1,0.1,0.2,0.1,0.3c0,0.1,0.1,0.2,0.2,0.3
				c0.1,0.1,0.1,0.2,0.2,0.4c0.1,0.1,0.2,0.3,0.3,0.4c0.1,0.1,0.2,0.3,0.3,0.4c0,0.1,0.1,0.1,0.2,0.2c0.1,0.1,0.1,0.1,0.2,0.2
				c0.1,0.1,0.3,0.3,0.4,0.4c0.1,0.1,0.3,0.3,0.5,0.4c0.2,0.1,0.3,0.3,0.5,0.4c0.1,0.1,0.2,0.1,0.3,0.2c0.1,0.1,0.2,0.1,0.3,0.2
				c0.4,0.2,0.8,0.5,1.2,0.7c0.2,0.1,0.4,0.2,0.6,0.3c0.1,0,0.2,0.1,0.3,0.1c0.1,0,0.1,0,0.2,0.1l0.2,0c0.4,0.1,0.8,0.2,1.2,0.2
				c0.4,0,0.8,0,1.2-0.1c0.1,0,0.2,0,0.3-0.1c0,0,0.1,0,0.1,0c0,0,0.1,0,0.1,0c0.1,0,0.2,0,0.2-0.1c0.1,0,0.2-0.1,0.2-0.1
				c0.3-0.1,0.6-0.2,0.8-0.3c0.2-0.1,0.4-0.2,0.6-0.3c0.2-0.1,0.3-0.2,0.3-0.3C71.9,41.7,71.9,41.6,71.9,41.6z"/>
		</g>
		<g id="XMLID_00000093154736603508969770000002796464761339793326_">
			<path id="XMLID_00000023987978329065259790000000231909510948775597_" class="st0" d="M7.6,50.4h3.9c2.3,0,3.7,1.3,3.7,3.3v0
				c0,2.2-1.8,3.4-3.9,3.4h-2v3.2H7.6V50.4z M11.4,55.5c1.3,0,2.1-0.7,2.1-1.8v0c0-1.2-0.8-1.8-2.1-1.8h-2v3.5H11.4z"/>
			<path id="XMLID_00000016797792043210212700000008450902028186421668_" class="st0" d="M22.9,50.3h1.6l4.3,9.9H27l-1-2.4h-4.7
				l-1,2.4h-1.8L22.9,50.3z M25.4,56.3l-1.7-3.9L22,56.3H25.4z"/>
			<path id="XMLID_00000044899155335730710580000003833568358291774631_" class="st0" d="M35.1,52h-3.1v-1.6h8V52h-3.1v8.2h-1.7V52z
				"/>
			<path id="XMLID_00000044874625070416196760000011603507414013618601_" class="st0" d="M47.4,50.3H49l4.3,9.9h-1.8l-1-2.4h-4.7
				l-1,2.4H43L47.4,50.3z M49.8,56.3l-1.7-3.9l-1.7,3.9H49.8z"/>
			<path id="XMLID_00000152967839237553918880000006819147605870630058_" class="st0" d="M57.3,55.3L57.3,55.3
				c0-2.8,2.1-5.1,5.1-5.1c1.7,0,2.8,0.5,3.8,1.3l-1.1,1.3c-0.8-0.6-1.5-1.1-2.8-1.1c-1.8,0-3.2,1.6-3.2,3.5v0c0,2,1.3,3.5,3.3,3.5
				c0.9,0,1.8-0.3,2.4-0.7v-1.8h-2.5v-1.5h4.2v4.1c-1,0.8-2.4,1.5-4.1,1.5C59.3,60.4,57.3,58.2,57.3,55.3z"/>
			<path id="XMLID_00000003802528668209144460000004969395114343510662_" class="st0" d="M71.7,55.3L71.7,55.3
				c0-2.8,2.1-5.1,5.2-5.1s5.1,2.3,5.1,5.1v0c0,2.8-2.1,5.1-5.2,5.1S71.7,58.1,71.7,55.3z M80.2,55.3L80.2,55.3
				c0-1.9-1.4-3.5-3.3-3.5c-2,0-3.3,1.6-3.3,3.5v0c0,1.9,1.4,3.5,3.3,3.5C78.8,58.8,80.2,57.2,80.2,55.3z"/>
			<path id="XMLID_00000176033309499789403450000003388264090931199162_" class="st0" d="M87.5,50.4h1.6l5.3,6.8v-6.8h1.7v9.8h-1.4
				l-5.4-7v7h-1.7V50.4z"/>
			<path id="XMLID_00000170263027900467768900000002855899086477696695_" class="st0" d="M102.1,50.4h1.7v9.8h-1.7V50.4z"/>
			<path id="XMLID_00000176727499706859189060000017703775172426721944_" class="st0" d="M113.3,50.3h1.6l4.3,9.9h-1.8l-1-2.4h-4.7
				l-1,2.4H109L113.3,50.3z M115.8,56.3l-1.7-3.9l-1.7,3.9H115.8z"/>
		</g>
		<g id="XMLID_00000063608081182496306800000001310038043884420280_">
			<path id="XMLID_00000049206942548131913300000010945190742634227118_" class="st0" d="M103.5,44.5c0,0-0.1-0.1-0.2-0.3
				c-0.1-0.1-0.2-0.2-0.3-0.3c-0.1-0.1-0.1-0.1-0.2-0.2c-0.1-0.1-0.2-0.1-0.2-0.2c-0.3-0.3-0.8-0.6-1.3-0.9
				c-0.5-0.3-1.2-0.7-1.9-1.1c-0.7-0.4-1.5-0.8-2.3-1.5c-0.8-0.6-1.5-1.5-2.1-2.4c-0.6-0.9-1.1-1.9-1.7-2.9c-0.3-0.5-0.6-1-1-1.4
				c-0.3-0.5-0.7-0.9-1.1-1.4c-0.8-0.9-1.6-1.8-2.3-2.8c-0.4-0.5-0.7-1-1-1.5l-0.1-0.2l-0.1-0.2l-0.1-0.2l0,0c0,0,0,0,0,0l0,0l0,0
				c0,0,0-0.1-0.1-0.1l-0.1,0l0,0l0,0l-0.1,0.1L87,27.2c-0.2,0.2-0.4,0.3-0.6,0.5c-0.4,0.3-0.8,0.6-1.2,0.9c-0.7,0.6-1.4,1.2-2,1.7
				c-1.2,1-2.2,1.9-2.9,2.5c-0.7,0.6-1.1,0.9-1.1,0.9s0.1-0.1,0.2-0.3c0.2-0.2,0.4-0.5,0.7-0.8c0.6-0.7,1.5-1.7,2.6-2.8
				c0.6-0.6,1.2-1.2,1.9-1.9c0.4-0.3,0.7-0.7,1.1-1c0.2-0.2,0.4-0.3,0.6-0.5l0.1-0.1l0.1-0.1l0.1-0.1c0.2-0.2,0.4-0.3,0.6-0.5
				c0.1-0.1,0.2-0.2,0.3-0.2l0.1-0.1l0,0c0,0,0,0,0,0l0,0l0.1,0.2c0.1,0.2,0.2,0.4,0.4,0.7l0.1,0.2l0.1,0.1l0.1,0.2l0.1,0.2l0.1,0.2
				c0.3,0.5,0.6,0.9,1,1.3c0.7,0.9,1.5,1.8,2.3,2.7c0.4,0.5,0.8,1,1.2,1.5c0.4,0.5,0.7,1,1,1.5c0.6,1,1.1,2,1.6,2.9
				c0.5,0.9,1.1,1.7,1.8,2.3c0.7,0.6,1.4,1.1,2.1,1.6c0.7,0.5,1.3,0.9,1.8,1.3c0.5,0.4,0.9,0.8,1.3,1.1c0.1,0.1,0.2,0.2,0.2,0.2
				c0.1,0.1,0.1,0.2,0.2,0.2c0.1,0.1,0.2,0.3,0.3,0.4C103.4,44.4,103.5,44.5,103.5,44.5z"/>
		</g>
		<g id="XMLID_00000066510987996158362920000013599862605923506573_">
			<path id="XMLID_00000091007227596505571400000010546205335342870924_" class="st0" d="M122.8,47.5c0,0-0.1-0.1-0.2-0.3
				c-0.1-0.2-0.4-0.5-0.7-0.9c-0.3-0.3-0.8-0.7-1.4-1c-0.6-0.3-1.3-0.7-2.1-1.2c-0.4-0.3-0.7-0.6-1.1-0.9c-0.3-0.3-0.7-0.7-1.1-1
				c-0.8-0.7-1.6-1.4-2.4-2.3c-0.4-0.4-0.8-1-1.1-1.5c-0.3-0.5-0.7-1-1-1.5c-0.7-0.9-1.7-1.6-2.8-2.4c-0.5-0.3-1-0.7-1.5-1.1
				c-0.3-0.2-0.5-0.4-0.7-0.6c-0.2-0.2-0.5-0.4-0.7-0.7c-0.2-0.2-0.4-0.5-0.6-0.7c-0.1-0.1-0.2-0.3-0.2-0.4
				c-0.1-0.1-0.1-0.3-0.2-0.4c-0.1-0.1-0.1-0.3-0.2-0.4l-0.1-0.2l0-0.1l0,0l0-0.1c0,0,0,0,0,0c0,0,0,0,0-0.1c0,0,0,0,0,0l0,0l0,0
				l0,0l0,0l0,0l0,0l0,0l-0.1,0l-0.1,0.1c-0.4,0.3-0.7,0.5-1.1,0.8c-0.7,0.5-1.4,0.9-2,1.3c-0.6,0.4-1.3,0.8-1.8,1.1
				c-0.6,0.3-1.1,0.6-1.6,0.9c-0.5,0.3-0.9,0.5-1.3,0.7c-0.4,0.2-0.7,0.4-1,0.5c-0.5,0.3-0.8,0.4-0.8,0.4s0.3-0.2,0.8-0.5
				c0.3-0.2,0.6-0.4,0.9-0.6c0.4-0.2,0.8-0.5,1.2-0.8c0.5-0.3,1-0.7,1.5-1c0.5-0.4,1.1-0.8,1.7-1.2c0.6-0.4,1.2-0.9,1.9-1.4
				c0.3-0.3,0.7-0.5,1-0.8c0.3-0.2,0.5-0.4,0.8-0.6c0.2-0.1,0.3-0.3,0.5-0.4l0.2-0.2c0.1-0.1,0.2-0.1,0.2-0.2c0,0.3,0,0.6,0.1,0.8
				c0,0.1,0,0.3,0,0.4c0,0.1,0,0.2,0.1,0.4l0,0.2l0,0.1l0.1,0.2c0.1,0.1,0.1,0.2,0.2,0.3c0.1,0.1,0.1,0.2,0.2,0.3
				c0.1,0.1,0.1,0.2,0.2,0.3c0.2,0.2,0.3,0.4,0.5,0.6c0.2,0.2,0.4,0.4,0.6,0.6c0.2,0.2,0.4,0.4,0.7,0.5c0.5,0.3,1,0.7,1.5,1
				c0.6,0.4,1.1,0.8,1.7,1.2c0.3,0.2,0.5,0.5,0.8,0.7c0.2,0.3,0.5,0.5,0.7,0.8c0.4,0.6,0.7,1.1,1,1.6c0.3,0.5,0.6,1,1,1.4
				c0.7,0.9,1.5,1.6,2.3,2.4c0.4,0.4,0.7,0.8,1,1.1c0.3,0.3,0.6,0.7,0.9,0.9c0.7,0.5,1.4,0.9,1.9,1.3c0.6,0.4,1.1,0.8,1.4,1.2
				c0.3,0.4,0.5,0.7,0.6,1C122.7,47.4,122.8,47.5,122.8,47.5z"/>
		</g>
		<g id="XMLID_00000064336114581251845460000012914994182062460828_">
			<path id="XMLID_00000130613337356109222490000007553319189445446283_" class="st0" d="M22.4,43c0,0,1.2-2,3.3-5.2
				c1-1.6,2.3-3.5,3.7-5.6c0.7-1,1.4-2.1,2.2-3.3c0.4-0.6,0.8-1.1,1.2-1.7c0.6-0.8,1.2-1.7,1.8-2.6c0.2,0.3,0.3,0.7,0.5,1
				c0.1,0.2,0.2,0.3,0.3,0.5c0,0,0,0.1,0.1,0.1l0,0.1l0.1,0.1c0.1,0.1,0.2,0.3,0.3,0.4c0.2,0.3,0.4,0.6,0.6,0.8
				c0.5,0.5,0.9,1,1.5,1.4c0.5,0.4,1.2,0.8,1.7,1.4c0.5,0.6,0.8,1.2,1.1,1.8c0.1,0.1,0.1,0.3,0.2,0.4c0.1,0.1,0.2,0.3,0.2,0.4
				c0.1,0.1,0.2,0.3,0.2,0.4c0.1,0.1,0.2,0.2,0.3,0.4l0.1,0.2l0.1,0.2c0.1,0.1,0.2,0.2,0.3,0.3c0.2,0.2,0.4,0.4,0.6,0.6
				c0.8,0.8,1.6,1.5,2.3,2.2c0.7,0.7,1.3,1.3,1.9,1.9c0.1,0.1,0.3,0.3,0.4,0.4c0.1,0.1,0.2,0.3,0.3,0.4c0.1,0.1,0.1,0.1,0.1,0.2
				c0,0.1,0.1,0.1,0.1,0.2c0.1,0.1,0.2,0.2,0.2,0.4c0.3,0.5,0.5,0.8,0.6,1.1c0.1,0.3,0.2,0.4,0.2,0.4s-0.1-0.1-0.2-0.4
				c-0.1-0.3-0.4-0.6-0.7-1c-0.1-0.1-0.2-0.2-0.3-0.3c0-0.1-0.1-0.1-0.1-0.2c-0.1-0.1-0.1-0.1-0.2-0.2c-0.1-0.1-0.2-0.2-0.3-0.4
				c-0.1-0.1-0.3-0.3-0.4-0.4c-0.6-0.5-1.2-1.1-2-1.7c-0.8-0.6-1.6-1.3-2.5-2.1c-0.2-0.2-0.4-0.4-0.6-0.6c-0.1-0.1-0.2-0.2-0.3-0.3
				l-0.2-0.2l-0.2-0.2c-0.1-0.1-0.2-0.2-0.3-0.4c-0.1-0.1-0.2-0.3-0.3-0.4c-0.1-0.1-0.2-0.3-0.3-0.4c-0.1-0.1-0.2-0.3-0.3-0.4
				c-0.3-0.6-0.6-1.1-1-1.5c-0.4-0.4-0.9-0.8-1.5-1.2c-0.6-0.4-1.2-0.9-1.7-1.5c-0.3-0.3-0.5-0.6-0.7-0.9c-0.1-0.2-0.2-0.3-0.3-0.5
				L34.4,27l0-0.1c0,0,0,0,0,0l0,0l0,0l0,0l0,0l0,0L34.3,27c-0.2,0.3-0.4,0.6-0.6,0.9c-0.4,0.6-0.8,1.1-1.2,1.7
				c-0.8,1.1-1.6,2.2-2.3,3.2c-1.5,2-2.8,3.8-4,5.3C23.9,41.2,22.4,43,22.4,43z"/>
		</g>
		<g id="XMLID_00000174563974730694914000000017739410897370425741_">
			<path id="XMLID_00000159449340488119633790000011180725987950086788_" class="st0" d="M2.9,47.5c0,0,0.1-0.1,0.2-0.3
				c0.1-0.1,0.1-0.2,0.2-0.4c0-0.1,0.1-0.2,0.2-0.2c0.1-0.1,0.1-0.2,0.2-0.3c0.1-0.2,0.3-0.4,0.5-0.6c0.2-0.2,0.4-0.5,0.6-0.7
				c0.4-0.5,1-1,1.6-1.6c0.6-0.6,1.3-1.1,2.1-1.7c0.8-0.6,1.6-1.2,2.5-1.9c0.9-0.7,1.7-1.4,2.6-2.2c0.8-0.8,1.7-1.7,2.4-2.6
				c0.7-1,1.3-2.1,1.9-3.1c0.6-1,1.2-2.1,1.8-3c0.2-0.2,0.3-0.4,0.5-0.7c0.1-0.1,0.2-0.2,0.3-0.3l0.1-0.1l0.1-0.1l0.1-0.1
				c0.2-0.2,0.3-0.3,0.5-0.5l0.1-0.1l0,0c0,0,0,0,0,0l0.1,0.1c0.1,0.1,0.2,0.2,0.2,0.2c0.2,0.2,0.5,0.5,0.7,0.7
				c0.7,0.7,1.3,1.3,1.9,1.8c1.2,1.1,2.3,1.9,3.1,2.4c0.2,0.1,0.4,0.2,0.5,0.3c0.1,0.1,0.3,0.2,0.4,0.2c0.2,0.1,0.3,0.2,0.3,0.2
				s-0.1-0.1-0.3-0.2c-0.1,0-0.2-0.1-0.4-0.2c-0.2-0.1-0.3-0.2-0.6-0.3c-0.8-0.4-2-1.1-3.4-2.1c-0.7-0.5-1.4-1.1-2.1-1.7
				c-0.1-0.1-0.2-0.2-0.3-0.3l0,0c0,0,0,0,0,0l0,0l0,0l0,0l0,0l0,0c0,0,0,0,0,0l0,0l-0.1,0.1l0,0l-0.1,0.1L21,28.5
				c-0.1,0.1-0.2,0.2-0.2,0.3c-0.2,0.2-0.3,0.4-0.5,0.6c-0.6,0.9-1.1,1.9-1.7,2.9c-0.6,1-1.1,2.2-1.9,3.2c-0.8,1.1-1.7,2-2.6,2.8
				c-0.9,0.8-1.9,1.5-2.8,2.1c-0.9,0.6-1.8,1.2-2.6,1.7c-0.8,0.5-1.5,1.1-2.2,1.6c-0.6,0.5-1.2,1-1.7,1.4c-0.2,0.2-0.5,0.4-0.6,0.6
				C4.1,46,4,46.2,3.8,46.4c-0.1,0.1-0.1,0.2-0.2,0.2c-0.1,0.1-0.1,0.2-0.2,0.2c-0.1,0.1-0.2,0.3-0.3,0.4C3,47.4,2.9,47.5,2.9,47.5z
				"/>
		</g>
		<g id="XMLID_00000063599310512980273570000005858378452826339989_">
			<path id="XMLID_00000074416545864922820910000012728752876660845983_" class="st0" d="M52.5,64.4h1.7c1,0,1.7,0.5,1.7,1.4v0
				c0,1-0.8,1.5-1.8,1.5h-1.2V69h-0.3V64.4z M54.1,67c0.9,0,1.4-0.4,1.4-1.1v0c0-0.7-0.6-1.1-1.4-1.1h-1.3V67H54.1z"/>
			<path id="XMLID_00000085968392634397424960000015290195332819251851_" class="st0" d="M58.3,66.7L58.3,66.7
				c0-1.3,0.9-2.4,2.3-2.4c1.4,0,2.3,1.1,2.3,2.4v0c0,1.3-0.9,2.4-2.3,2.4S58.3,68,58.3,66.7z M62.6,66.7L62.6,66.7
				c0-1.2-0.8-2.1-2-2.1c-1.1,0-2,0.9-2,2.1v0c0,1.1,0.8,2.1,2,2.1S62.6,67.9,62.6,66.7z"/>
			<path id="XMLID_00000057125638727759928340000010973597010221221273_" class="st0" d="M65.7,64.4H66v4.3h2.7V69h-3V64.4z"/>
			<path id="XMLID_00000152257016073574515130000015725957571997115790_" class="st0" d="M70.9,66.7L70.9,66.7
				c0-1.3,0.9-2.4,2.3-2.4s2.3,1.1,2.3,2.4v0c0,1.3-0.9,2.4-2.3,2.4S70.9,68,70.9,66.7z M75.1,66.7L75.1,66.7c0-1.2-0.8-2.1-2-2.1
				c-1.1,0-2,0.9-2,2.1v0c0,1.1,0.8,2.1,2,2.1C74.3,68.8,75.1,67.9,75.1,66.7z"/>
		</g>
		<g id="XMLID_00000098189907739898798450000015531803483426188978_">
			<path id="XMLID_00000147182143811142902460000000842043523336365697_" class="st0" d="M70.2,27c0,0-0.1,0-0.2,0
				c-0.1,0-0.3-0.1-0.5-0.1c-0.2-0.1-0.5-0.2-0.8-0.3c-0.3-0.1-0.7-0.3-1-0.5c-0.4-0.2-0.8-0.5-1.2-0.9c-0.4-0.3-0.8-0.8-1.2-1.2
				c-0.2-0.2-0.4-0.5-0.5-0.8c-0.2-0.3-0.3-0.6-0.5-0.9c0-0.1-0.1-0.2-0.1-0.2c0-0.1-0.1-0.2-0.1-0.3c0-0.1-0.1-0.2-0.1-0.3
				c0-0.1,0-0.2-0.1-0.2c0-0.1,0-0.2-0.1-0.2c0,0,0,0,0,0l0,0l0,0l0,0c0,0,0,0-0.1,0.1l0,0c0,0,0,0,0,0c0,0,0,0,0,0l-0.1,0.1
				c-0.1,0.1-0.3,0.2-0.4,0.3c-0.1,0.1-0.3,0.2-0.4,0.3c-0.1,0.1-0.3,0.2-0.4,0.3c-0.3,0.2-0.6,0.4-0.8,0.6
				c-0.3,0.2-0.6,0.4-0.8,0.5c-0.3,0.2-0.6,0.4-0.8,0.6c-0.1,0.1-0.3,0.2-0.4,0.3c-0.1,0.1-0.3,0.2-0.4,0.3L59,24.7l-0.2,0.2
				c-0.1,0.1-0.1,0.1-0.2,0.2l-0.2,0.2l-0.1,0.2l-0.2,0.2c-0.1,0.1-0.2,0.2-0.3,0.4c-0.1,0.1-0.2,0.2-0.3,0.3
				c-0.1,0.1-0.2,0.2-0.3,0.3c-0.4,0.4-0.9,0.8-1.3,1.2c-0.9,0.7-1.9,1.4-2.7,2c-0.9,0.6-1.7,1.1-2.5,1.6c-0.8,0.5-1.5,1-2.1,1.5
				c-0.6,0.5-1.1,1-1.5,1.5c-0.1,0.1-0.2,0.2-0.3,0.3c-0.1,0.1-0.2,0.2-0.3,0.3c-0.1,0.1-0.2,0.2-0.2,0.3c-0.1,0.1-0.1,0.2-0.2,0.3
				c-0.1,0.2-0.2,0.4-0.3,0.5c-0.1,0.1-0.2,0.3-0.2,0.4c-0.1,0.2-0.2,0.3-0.2,0.3s0-0.1,0.1-0.3c0-0.1,0.1-0.2,0.2-0.4
				c0.1-0.2,0.1-0.3,0.3-0.5c0.1-0.1,0.1-0.2,0.2-0.3c0.1-0.1,0.1-0.2,0.2-0.3c0.1-0.1,0.1-0.2,0.2-0.4c0.1-0.1,0.2-0.3,0.3-0.4
				c0.4-0.5,0.8-1.1,1.4-1.7c0.6-0.6,1.3-1.2,2-1.7c0.8-0.6,1.6-1.2,2.4-1.8c0.9-0.6,1.7-1.3,2.6-2c0.4-0.4,0.8-0.8,1.2-1.2
				c0.1-0.1,0.2-0.2,0.3-0.3c0.1-0.1,0.2-0.2,0.3-0.3c0.1-0.1,0.2-0.2,0.3-0.3l0.1-0.2l0.2-0.2l0.2-0.2c0.1-0.1,0.1-0.1,0.2-0.2
				l0.2-0.2l0.2-0.2c0.1-0.1,0.3-0.2,0.4-0.4c0.1-0.1,0.3-0.2,0.4-0.3c0.3-0.2,0.6-0.4,0.9-0.6c0.3-0.2,0.6-0.4,0.9-0.5
				c0.3-0.2,0.6-0.3,0.8-0.5c0.1-0.1,0.3-0.2,0.4-0.3c0.1-0.1,0.3-0.2,0.4-0.3c0.1-0.1,0.2-0.2,0.4-0.3l0.1-0.1l0.1-0.1
				c0,0,0.1,0,0.1-0.1c0.1-0.1,0.2-0.2,0.3-0.3c0.2-0.2,0.4-0.4,0.6-0.6c0.1-0.1,0.2-0.2,0.3-0.3l0.1-0.1l0.1-0.1c0,0,0,0,0.1,0
				c0,0.2,0,0.4,0,0.6c0,0.2,0,0.4,0,0.6c0,0.2,0,0.4,0,0.5c0,0.2,0,0.3,0.1,0.5l0,0.1l0,0l0,0.1l0,0.1c0,0.1,0,0.2,0.1,0.2
				c0,0.1,0,0.2,0.1,0.2c0,0.1,0,0.2,0.1,0.2c0.1,0.3,0.2,0.6,0.4,0.8c0.1,0.3,0.3,0.5,0.4,0.8c0.3,0.5,0.7,0.9,1,1.3
				c0.3,0.4,0.7,0.7,1,0.9c0.3,0.3,0.7,0.5,0.9,0.6c0.3,0.2,0.5,0.3,0.7,0.4c0.2,0.1,0.4,0.2,0.5,0.2C70.2,27,70.2,27,70.2,27z"/>
		</g>
		<g id="XMLID_00000140004990261668510390000017947793117147939469_">
			<g id="XMLID_00000110432981397329644640000004346363293846864550_">
				<path id="XMLID_00000047767617192636956020000003255048032711250817_" class="st0" d="M113.4,67.1c0,0-0.1,0-0.4,0.1
					c-0.2,0-0.6,0.1-1,0.1c-0.4,0-1,0.1-1.6,0.1c-0.6,0-1.4,0-2.2-0.2c-0.8-0.1-1.7-0.3-2.6-0.6c-0.2-0.1-0.5-0.1-0.7-0.2
					c-0.2-0.1-0.5-0.2-0.7-0.3c-0.2-0.1-0.5-0.2-0.7-0.3c-0.1-0.1-0.2-0.1-0.4-0.2c-0.1-0.1-0.2-0.1-0.3-0.2
					c-0.5-0.2-0.9-0.3-1.3-0.2c-0.1,0-0.2,0.1-0.3,0.1c-0.1,0.1-0.2,0.1-0.3,0.2c-0.2,0.2-0.4,0.4-0.6,0.6c-0.1,0.1-0.2,0.2-0.4,0.3
					c-0.1,0.1-0.3,0.2-0.5,0.2C99.5,67,99.3,67,99.2,67c-0.2,0-0.4,0-0.5,0c-0.3,0-0.7-0.1-1-0.3c-0.2-0.1-0.3-0.2-0.4-0.2
					c-0.1-0.1-0.3-0.2-0.4-0.3c-0.5-0.4-0.9-0.9-1.3-1.3c-0.2-0.2-0.4-0.4-0.6-0.5c-0.2-0.1-0.3-0.1-0.5-0.1
					C94,64.4,93.5,64.8,93,65c-0.2,0.1-0.5,0.3-0.7,0.4c-0.2,0.1-0.5,0.2-0.7,0.3c-1,0.4-2,0.7-2.9,0.9c-0.2,0-0.5,0.1-0.7,0.1
					c-0.2,0-0.4,0.1-0.7,0.1C86.9,67,86.4,67,86,67c-0.4,0-0.8,0-1.1,0c-0.2,0-0.4,0-0.5,0c-0.2,0-0.3,0-0.5,0c-0.3,0-0.6,0-0.9-0.1
					c-0.3,0-0.5-0.1-0.7-0.1c-0.2,0-0.4-0.1-0.6-0.1c-0.2,0-0.3-0.1-0.4-0.1c-0.2-0.1-0.3-0.1-0.3-0.1s0.1,0,0.4,0
					c0.1,0,0.3,0,0.4,0.1c0.2,0,0.4,0,0.6,0c0.2,0,0.5,0,0.7,0c0.3,0,0.6,0,0.9,0c0.2,0,0.3,0,0.5,0c0.2,0,0.3,0,0.5,0
					c0.4,0,0.7-0.1,1.1-0.1c0.4,0,0.8-0.1,1.2-0.2c0.2,0,0.4-0.1,0.6-0.1c0.2,0,0.4-0.1,0.7-0.2c0.9-0.3,1.8-0.6,2.7-1
					c0.2-0.1,0.5-0.2,0.7-0.3c0.2-0.1,0.5-0.2,0.7-0.4c0.1-0.1,0.2-0.1,0.3-0.2c0.1-0.1,0.2-0.1,0.4-0.2c0.3-0.1,0.5-0.3,0.9-0.4
					c0.2,0,0.4-0.1,0.6,0c0.2,0,0.4,0.1,0.6,0.2c0.2,0.1,0.3,0.2,0.4,0.3c0.1,0.1,0.2,0.2,0.3,0.3c0.4,0.4,0.8,0.9,1.2,1.2
					c0.1,0.1,0.2,0.2,0.3,0.2c0.1,0.1,0.2,0.1,0.3,0.2c0.2,0.1,0.5,0.2,0.7,0.2c0.1,0,0.2,0,0.4,0c0.1,0,0.2,0,0.3-0.1
					c0.2-0.1,0.4-0.2,0.6-0.4c0.2-0.2,0.4-0.4,0.6-0.6c0.1-0.1,0.2-0.2,0.4-0.3c0.1-0.1,0.3-0.2,0.5-0.2c0.3-0.1,0.7-0.1,1,0
					c0.3,0.1,0.6,0.2,0.8,0.3c0.1,0.1,0.2,0.1,0.4,0.2c0.1,0.1,0.2,0.1,0.3,0.2c0.2,0.1,0.4,0.2,0.7,0.3c0.2,0.1,0.4,0.2,0.7,0.3
					c0.2,0.1,0.4,0.2,0.7,0.2c0.9,0.3,1.7,0.5,2.5,0.7c0.8,0.2,1.5,0.3,2.1,0.3c0.6,0.1,1.2,0.1,1.6,0.1c0.4,0,0.8,0,1,0
					C113.3,67.1,113.4,67.1,113.4,67.1z"/>
			</g>
			<g id="XMLID_00000140004455926893157810000009641561110324246681_">
				<path id="XMLID_00000098917503188800911660000001580439458847271812_" class="st0" d="M47.9,67.1c0,0-0.1,0-0.4,0
					c-0.2,0-0.6,0-1,0c-0.9,0-2.2-0.1-3.8-0.5c-0.4-0.1-0.8-0.2-1.2-0.4c-0.4-0.2-0.8-0.3-1.3-0.5c-0.4-0.1-0.9-0.3-1.3-0.3
					c-0.2,0-0.4,0-0.6,0.1c-0.2,0.1-0.3,0.2-0.5,0.4c-0.3,0.3-0.6,0.8-1,1.3c-0.2,0.2-0.4,0.5-0.8,0.6l-0.1,0l-0.1,0l-0.1,0
					c-0.1,0-0.2,0-0.3,0c-0.2,0-0.4,0-0.6-0.1c-0.4-0.1-0.6-0.3-0.9-0.4c-0.2-0.2-0.5-0.3-0.7-0.5c-0.5-0.3-1-0.7-1.5-1
					c-0.5-0.3-1-0.7-1.5-1c-0.1-0.1-0.2-0.2-0.4-0.2c-0.1-0.1-0.2-0.2-0.3-0.2c-0.1-0.1-0.2-0.1-0.3-0.2c-0.1,0-0.2,0-0.2,0
					c-0.2,0-0.4,0.1-0.6,0.3c-0.2,0.1-0.5,0.3-0.7,0.4c-0.2,0.1-0.5,0.3-0.7,0.4c-0.2,0.1-0.5,0.2-0.7,0.4c-1,0.5-1.9,0.8-2.8,1.1
					c-0.9,0.3-1.8,0.5-2.5,0.7c-0.2,0-0.4,0.1-0.6,0.1c-0.2,0-0.4,0.1-0.5,0.1c-0.4,0-0.7,0.1-1,0.1c-0.2,0-0.3,0-0.5,0
					c-0.1,0-0.3,0-0.4,0c-0.3,0-0.5,0-0.7,0c-0.2,0-0.4,0-0.6,0c-0.2,0-0.3,0-0.4,0c-0.2,0-0.4,0-0.4,0s0.1,0,0.4,0
					c0.1,0,0.3,0,0.4,0c0.2,0,0.4,0,0.6-0.1c0.2,0,0.5-0.1,0.7-0.1c0.1,0,0.3,0,0.4-0.1c0.1,0,0.3,0,0.4-0.1c0.3,0,0.6-0.1,1-0.2
					c0.2,0,0.4-0.1,0.5-0.1c0.2,0,0.4-0.1,0.6-0.1c0.8-0.2,1.6-0.5,2.4-0.8c0.9-0.3,1.8-0.7,2.7-1.2c0.2-0.1,0.5-0.3,0.7-0.4
					c0.2-0.1,0.5-0.3,0.7-0.4c0.2-0.1,0.5-0.3,0.7-0.4c0.1-0.1,0.2-0.2,0.4-0.2c0.1-0.1,0.3-0.2,0.5-0.2c0.2,0,0.4,0,0.6,0.1
					c0.2,0.1,0.3,0.1,0.5,0.2c0.1,0.1,0.3,0.2,0.4,0.2c0.1,0.1,0.2,0.2,0.4,0.2c0.5,0.3,1,0.7,1.5,1c0.5,0.3,1,0.7,1.5,1
					c0.2,0.2,0.5,0.3,0.7,0.5c0.2,0.2,0.4,0.3,0.6,0.4c0.1,0,0.2,0,0.3,0c0.1,0,0.2,0,0.3-0.1c0.2-0.1,0.3-0.2,0.5-0.4
					c0.3-0.4,0.6-0.8,1-1.3c0.2-0.2,0.5-0.4,0.8-0.5c0.3-0.1,0.6-0.1,0.9-0.1c0.6,0,1.1,0.2,1.5,0.4c0.4,0.2,0.8,0.4,1.2,0.6
					c0.4,0.2,0.8,0.3,1.1,0.4c1.5,0.5,2.8,0.7,3.6,0.8c0.4,0,0.8,0.1,1,0.1C47.8,67.1,47.9,67.1,47.9,67.1z"/>
			</g>
		</g>
		<g id="XMLID_00000037685222773635351110000000214357432638332301_">
			<path id="XMLID_00000096030905243701296080000002973719350245534129_" class="st0" d="M54,48.8c0,0,0.3-0.6,0.7-1.5
				c0.2-0.5,0.5-1,0.8-1.6c0.2-0.3,0.3-0.6,0.5-0.9c0.2-0.3,0.4-0.6,0.7-0.9c0.1-0.2,0.3-0.3,0.4-0.4c0.1-0.1,0.3-0.3,0.4-0.4
				c0.3-0.2,0.6-0.5,0.8-0.7c0.5-0.4,1-0.8,1.4-1.1c0.8-0.6,1.3-1,1.3-1s-0.4,0.5-1.1,1.2c-0.4,0.4-0.8,0.8-1.3,1.2
				c-0.2,0.2-0.5,0.5-0.8,0.7c-0.1,0.1-0.3,0.2-0.4,0.4c-0.1,0.1-0.2,0.3-0.4,0.4c-0.2,0.3-0.5,0.6-0.7,0.9
				c-0.2,0.3-0.4,0.6-0.6,0.9c-0.4,0.6-0.7,1.1-1,1.5c-0.3,0.4-0.5,0.8-0.7,1C54.1,48.6,54,48.8,54,48.8z"/>
		</g>
	</g>
</g>
</svg>
