<?xml version="1.0" encoding="utf-8"?>
<!-- Generator: Adobe Illustrator 27.0.0, SVG Export Plug-In . SVG Version: 6.00 Build 0)  -->
<svg version="1.1" id="Layer_1" xmlns="http://www.w3.org/2000/svg" xmlns:xlink="http://www.w3.org/1999/xlink" x="0px" y="0px"
	 viewBox="0 0 36 36" style="enable-background:new 0 0 36 36;" xml:space="preserve">
<style type="text/css">
	.st0{fill:#212736;}
</style>
<g>
	<path class="st0" d="M18,14.1c-2.1,0-3.9,1.7-3.9,3.9c0,2.1,1.7,3.9,3.9,3.9c2.1,0,3.9-1.7,3.9-3.9C21.9,15.9,20.1,14.1,18,14.1z"
		/>
	<path class="st0" d="M27,11.2c-0.2-0.5-0.5-0.9-0.9-1.3S25.4,9.2,24.8,9c-0.4-0.2-1-0.3-2.2-0.4c-1.2-0.1-1.6-0.1-4.7-0.1
		c-3.1,0-3.5,0-4.7,0.1c-1.1,0.1-1.7,0.2-2.2,0.4c-0.5,0.2-0.9,0.5-1.3,0.9c-0.4,0.4-0.7,0.8-0.9,1.3c-0.2,0.4-0.3,1-0.4,2.2
		c-0.1,1.2-0.1,1.6-0.1,4.7s0,3.5,0.1,4.7c0.1,1.1,0.2,1.7,0.4,2.2c0.2,0.5,0.5,0.9,0.9,1.3c0.4,0.4,0.8,0.7,1.3,0.9
		c0.4,0.2,1,0.3,2.2,0.4c1.2,0.1,1.6,0.1,4.7,0.1c3.1,0,3.5,0,4.7-0.1c1.1-0.1,1.7-0.2,2.2-0.4c0.5-0.2,0.9-0.5,1.3-0.9
		c0.4-0.4,0.7-0.8,0.9-1.3c0.2-0.4,0.3-1,0.4-2.2c0.1-1.2,0.1-1.6,0.1-4.7s0-3.5-0.1-4.7C27.4,12.2,27.2,11.6,27,11.2z M18,23.9
		c-3.3,0-5.9-2.7-5.9-5.9s2.7-5.9,5.9-5.9c3.3,0,5.9,2.7,5.9,5.9S21.3,23.9,18,23.9z M24.2,13.2c-0.8,0-1.4-0.6-1.4-1.4
		c0-0.8,0.6-1.4,1.4-1.4c0.8,0,1.4,0.6,1.4,1.4C25.6,12.6,25,13.2,24.2,13.2z"/>
	<path class="st0" d="M18,0.5C8.3,0.5,0.5,8.3,0.5,18S8.3,35.5,18,35.5c9.7,0,17.5-7.8,17.5-17.5S27.7,0.5,18,0.5z M29.5,22.8
		c-0.1,1.2-0.3,2.1-0.5,2.8c-0.3,0.8-0.7,1.4-1.3,2.1c-0.6,0.6-1.3,1-2.1,1.3c-0.7,0.3-1.6,0.5-2.8,0.5c-1.2,0.1-1.6,0.1-4.8,0.1
		c-3.1,0-3.5,0-4.8-0.1c-1.2-0.1-2.1-0.3-2.8-0.5c-0.8-0.3-1.4-0.7-2.1-1.3c-0.6-0.6-1-1.3-1.3-2.1c-0.3-0.7-0.5-1.6-0.5-2.8
		c-0.1-1.2-0.1-1.6-0.1-4.8s0-3.5,0.1-4.8C6.5,12,6.7,11.1,7,10.4C7.3,9.6,7.7,9,8.4,8.4C9,7.7,9.6,7.3,10.4,7
		c0.7-0.3,1.6-0.5,2.8-0.5c1.2-0.1,1.6-0.1,4.8-0.1c3.1,0,3.5,0,4.8,0.1C24,6.5,24.9,6.7,25.6,7c0.8,0.3,1.4,0.7,2.1,1.3
		c0.6,0.6,1,1.3,1.3,2.1c0.3,0.7,0.5,1.6,0.5,2.8c0.1,1.2,0.1,1.6,0.1,4.8S29.6,21.5,29.5,22.8z"/>
</g>
</svg>
