<?xml version="1.0" encoding="utf-8"?>
<!-- Generator: Adobe Illustrator 27.0.0, SVG Export Plug-In . SVG Version: 6.00 Build 0)  -->
<svg version="1.1" id="Layer_1" xmlns="http://www.w3.org/2000/svg" xmlns:xlink="http://www.w3.org/1999/xlink" x="0px" y="0px"
	 viewBox="0 0 125.7 88" style="enable-background:new 0 0 125.7 88;" xml:space="preserve">
<style type="text/css">
	.st0{fill:#212736;}
</style>
<g>
	<path class="st0" d="M54,80.5c-0.2-0.2-0.4-0.3-0.7-0.4c-0.3-0.1-0.5-0.1-0.8-0.1h-2.7v6.5h0.8v-2.3l1.9,0c0.3,0,0.6,0,0.8-0.1
		c0.3-0.1,0.5-0.2,0.7-0.4c0.2-0.2,0.3-0.4,0.5-0.7c0.1-0.3,0.2-0.6,0.2-0.9c0-0.3-0.1-0.6-0.2-0.9C54.3,80.9,54.2,80.6,54,80.5z
		 M53.4,83c-0.2,0.2-0.6,0.4-1,0.4l-1.9,0v-2.7h1.9c0.4,0,0.7,0.1,1,0.4c0.2,0.2,0.4,0.6,0.4,1C53.8,82.4,53.7,82.7,53.4,83z"/>
	<path class="st0" d="M60.6,80.2c-0.5-0.3-1-0.4-1.6-0.4c-0.6,0-1.1,0.1-1.6,0.4c-0.5,0.3-0.9,0.7-1.2,1.2c-0.3,0.5-0.4,1.1-0.4,1.8
		c0,0.7,0.1,1.3,0.4,1.8c0.3,0.5,0.7,0.9,1.2,1.2c0.5,0.3,1,0.4,1.6,0.4c0.6,0,1.1-0.1,1.6-0.4c0.5-0.3,0.9-0.7,1.2-1.2
		c0.3-0.5,0.4-1.1,0.4-1.8c0-0.7-0.1-1.3-0.4-1.8C61.5,80.9,61.1,80.5,60.6,80.2z M61.1,84.6c-0.2,0.4-0.5,0.7-0.9,0.9
		c-0.4,0.2-0.8,0.3-1.2,0.3c-0.4,0-0.8-0.1-1.2-0.3c-0.4-0.2-0.6-0.5-0.9-0.9c-0.2-0.4-0.3-0.9-0.3-1.4c0-0.6,0.1-1,0.3-1.4
		c0.2-0.4,0.5-0.7,0.9-0.9c0.4-0.2,0.8-0.3,1.2-0.3c0.5,0,0.9,0.1,1.2,0.3c0.4,0.2,0.6,0.5,0.9,0.9c0.2,0.4,0.3,0.9,0.3,1.4
		C61.4,83.7,61.3,84.2,61.1,84.6z"/>
	<polygon class="st0" points="64.8,79.9 64,79.9 64,86.4 68.4,86.4 68.4,85.6 64.8,85.6 	"/>
	<path class="st0" d="M74.4,80.2c-0.5-0.3-1-0.4-1.6-0.4c-0.6,0-1.1,0.1-1.6,0.4c-0.5,0.3-0.9,0.7-1.2,1.2c-0.3,0.5-0.4,1.1-0.4,1.8
		c0,0.7,0.1,1.3,0.4,1.8c0.3,0.5,0.7,0.9,1.2,1.2c0.5,0.3,1,0.4,1.6,0.4c0.6,0,1.1-0.1,1.6-0.4c0.5-0.3,0.9-0.7,1.2-1.2
		c0.3-0.5,0.4-1.1,0.4-1.8c0-0.7-0.1-1.3-0.4-1.8C75.2,80.9,74.8,80.5,74.4,80.2z M74.8,84.6c-0.2,0.4-0.5,0.7-0.9,0.9
		c-0.4,0.2-0.8,0.3-1.2,0.3c-0.4,0-0.8-0.1-1.2-0.3c-0.4-0.2-0.6-0.5-0.9-0.9c-0.2-0.4-0.3-0.9-0.3-1.4c0-0.6,0.1-1,0.3-1.4
		c0.2-0.4,0.5-0.7,0.9-0.9c0.4-0.2,0.8-0.3,1.2-0.3c0.5,0,0.9,0.1,1.2,0.3c0.4,0.2,0.6,0.5,0.9,0.9c0.2,0.4,0.3,0.9,0.3,1.4
		C75.1,83.7,75,84.2,74.8,84.6z"/>
	<polygon class="st0" points="13.6,70.4 18.8,70.4 18.8,69.1 13.6,69.1 13.6,67 20,67 20,65.6 11.9,65.6 11.9,73.9 20,73.9 20,72.4 
		13.6,72.4 	"/>
	<polygon class="st0" points="24,65.6 22.3,65.6 22.3,73.9 29.5,73.9 29.5,72.4 24,72.4 	"/>
	<path class="st0" d="M43.6,66.2c-0.3-0.2-0.7-0.4-1.1-0.5s-0.8-0.2-1.3-0.2H36v8.3h1.7V67h3.6c0.5,0,0.8,0.1,1.1,0.4
		c0.3,0.2,0.4,0.6,0.4,1c0,0.4-0.1,0.8-0.4,1c-0.3,0.2-0.6,0.4-1.1,0.4l-3.6,0v1.4l3.4,0c0.5,0,0.9,0,1.3-0.1s0.8-0.3,1.1-0.5
		c0.3-0.2,0.5-0.5,0.7-0.9c0.2-0.4,0.3-0.8,0.3-1.3c0-0.5-0.1-0.9-0.3-1.3C44.1,66.8,43.9,66.5,43.6,66.2z"/>
	<rect x="46.9" y="65.6" class="st0" width="1.7" height="8.3"/>
	<path class="st0" d="M54.5,67.2c0.5-0.2,1.1-0.3,1.9-0.3c0.6,0,1.1,0.1,1.5,0.2c0.4,0.1,0.7,0.3,1,0.6c0.3,0.3,0.4,0.6,0.6,0.9h1.7
		c-0.1-0.7-0.3-1.3-0.7-1.7c-0.4-0.5-0.9-0.8-1.6-1.1c-0.7-0.3-1.5-0.4-2.4-0.4c-0.8,0-1.5,0.1-2.1,0.3c-0.6,0.2-1.2,0.5-1.7,0.8
		c-0.5,0.4-0.8,0.8-1.1,1.4c-0.3,0.5-0.4,1.2-0.4,1.9s0.1,1.3,0.4,1.9c0.3,0.5,0.6,1,1.1,1.3c0.5,0.4,1,0.6,1.7,0.8
		c0.6,0.2,1.4,0.3,2.1,0.3c0.9,0,1.7-0.1,2.4-0.4c0.7-0.2,1.2-0.6,1.6-1.1c0.4-0.5,0.6-1,0.7-1.7h-1.7c-0.1,0.3-0.3,0.6-0.6,0.9
		c-0.3,0.3-0.6,0.5-1,0.6c-0.4,0.1-0.9,0.2-1.5,0.2c-0.7,0-1.3-0.1-1.9-0.3c-0.5-0.2-0.9-0.5-1.2-1c-0.3-0.4-0.4-0.9-0.4-1.6
		c0-0.6,0.1-1.2,0.4-1.6C53.6,67.7,54,67.4,54.5,67.2z"/>
	<polygon class="st0" points="68.6,71 68.5,70.6 65.4,70.6 64.8,72.1 69.1,72.1 69.9,73.9 71.8,73.9 67.8,65.6 66,65.6 62.1,73.9 
		63.9,73.9 66.9,67.3 	"/>
	<polygon class="st0" points="73.5,73.9 75.2,73.9 75.2,70.6 80.5,70.6 80.5,69.2 75.2,69.2 75.2,67 81.6,67 81.6,65.6 73.5,65.6 	
		"/>
	<polygon class="st0" points="85.3,65.6 83.6,65.6 83.6,73.9 90.8,73.9 90.8,72.4 85.3,72.4 	"/>
	<path class="st0" d="M100.4,65.9c-0.8-0.3-1.7-0.5-2.8-0.5c-1.1,0-2.1,0.2-2.8,0.5c-0.8,0.3-1.4,0.8-1.8,1.5
		c-0.4,0.6-0.6,1.4-0.6,2.3c0,0.9,0.2,1.7,0.6,2.3c0.4,0.6,1,1.1,1.8,1.5c0.8,0.3,1.7,0.5,2.8,0.5c1.1,0,2.1-0.2,2.8-0.5
		c0.8-0.3,1.4-0.8,1.8-1.5c0.4-0.6,0.6-1.4,0.6-2.3c0-0.9-0.2-1.7-0.6-2.3C101.7,66.8,101.1,66.3,100.4,65.9z M100.6,71.3
		c-0.3,0.4-0.7,0.7-1.2,0.9c-0.5,0.2-1.1,0.3-1.8,0.3c-0.7,0-1.3-0.1-1.8-0.3c-0.5-0.2-0.9-0.5-1.2-0.9s-0.4-1-0.4-1.6
		c0-0.6,0.1-1.2,0.4-1.6c0.3-0.4,0.7-0.7,1.2-0.9c0.5-0.2,1.1-0.3,1.8-0.3c0.7,0,1.3,0.1,1.8,0.3c0.5,0.2,0.9,0.5,1.2,0.9
		c0.3,0.4,0.4,1,0.4,1.6C101,70.4,100.9,70.9,100.6,71.3z"/>
	<path class="st0" d="M112.5,70.4c-0.2-0.1-0.5-0.1-0.9-0.1c0.2,0,0.4,0,0.6-0.1c0.3-0.1,0.6-0.2,0.8-0.4c0.2-0.2,0.4-0.4,0.6-0.7
		c0.1-0.3,0.2-0.6,0.2-1c0-0.6-0.1-1.1-0.4-1.4c-0.3-0.4-0.6-0.6-1.1-0.8c-0.5-0.2-1-0.3-1.7-0.3H105v8.3h1.7v-3.1h3.2
		c0.5,0,1,0,1.2,0.1c0.3,0.1,0.5,0.2,0.6,0.4c0.1,0.2,0.2,0.4,0.2,0.7v1.9h1.7v-2c0-0.5-0.1-0.8-0.3-1
		C113.2,70.6,112.9,70.5,112.5,70.4z M106.7,69.5V67h3.9c0.5,0,0.8,0.1,1.1,0.3c0.3,0.2,0.4,0.5,0.4,0.9c0,0.4-0.1,0.7-0.4,0.9
		c-0.3,0.2-0.6,0.3-1.1,0.3H106.7z"/>
	<path class="st0" d="M50.3,29.8c0.3,0.1,0.6,0.2,0.9,0.3c0.5,0.1,0.7,0.2,0.7,0.2s-0.2-0.1-0.7-0.4c-0.2-0.1-0.5-0.3-0.8-0.4
		c-0.3-0.2-0.6-0.4-1-0.6c-0.7-0.5-1.5-1.1-2.4-1.9c-0.8-0.8-1.7-1.6-2.6-2.6c-1.8-1.9-3.2-3.9-4.2-5.3c-1-1.4-1.6-2.4-1.6-2.4
		s0.3,1.1,1.1,2.7c0.8,1.6,2,3.8,3.8,5.8c0.9,1,1.9,1.9,2.9,2.6c1,0.7,1.9,1.2,2.7,1.6C49.6,29.6,50,29.7,50.3,29.8z"/>
	<path class="st0" d="M45.2,21.8c1.2,1.3,2.5,2.5,3.8,3.4c1.3,0.9,2.5,1.6,3.6,2c0.3,0.1,0.5,0.2,0.8,0.3c0.2,0.1,0.5,0.2,0.7,0.3
		c0.4,0.1,0.8,0.2,1.1,0.3c0.6,0.1,1,0.2,1,0.2s-0.3-0.2-0.9-0.5c-0.3-0.2-0.6-0.4-1-0.6c-0.2-0.1-0.4-0.3-0.6-0.4
		c-0.2-0.1-0.4-0.3-0.7-0.5c-0.9-0.6-1.9-1.5-3-2.5c-1.1-1-2.2-2.1-3.3-3.4c-2.3-2.5-4.2-5-5.5-6.8c-1.3-1.8-2.1-3-2.1-3
		s0.3,1.4,1.3,3.5C41.3,16.3,42.8,19.2,45.2,21.8z"/>
	<path class="st0" d="M98.2,7.7c2.7-0.2,5.1-0.5,7.2-0.8c4.1-0.5,6.6-1,6.6-1s-2.5-0.3-6.6-0.5c-2-0.1-4.5-0.2-7.2-0.3
		c-1.4,0-2.8,0-4.2,0c-0.7,0-1.5,0-2.2,0c-0.6,0-1.2,0-1.8,0l0,0l-0.1-0.1c-0.2-0.1-0.3-0.2-0.5-0.3c-0.3-0.2-0.7-0.4-1.1-0.6
		c-0.2-0.1-0.4-0.2-0.5-0.3c-0.2-0.1-0.4-0.2-0.6-0.2c-0.2-0.1-0.4-0.2-0.6-0.2c-0.2-0.1-0.4-0.1-0.6-0.2c-1.5-0.5-3.2-0.8-4.8-0.6
		c-0.2,0-0.4,0.1-0.6,0.1c-0.2,0-0.4,0.1-0.6,0.1c-0.2,0.1-0.4,0.1-0.5,0.2l-0.3,0.1c-0.1,0-0.2,0.1-0.3,0.1
		c-0.2,0.1-0.3,0.2-0.5,0.3c-0.2,0.1-0.3,0.2-0.5,0.3c-0.3,0.2-0.6,0.4-0.8,0.7c-1,0.9-1.6,2-2.1,3c-0.5,1-0.7,1.9-0.9,2.7
		c-0.2,0.8-0.3,1.5-0.3,2.1c-0.1,1.2-0.1,1.8-0.1,1.8s0.1-0.6,0.5-1.7c0.4-1.1,1-2.6,2.1-4.2c0.6-0.8,1.2-1.6,2.1-2.1
		c0.2-0.1,0.4-0.3,0.7-0.4c0.1-0.1,0.2-0.1,0.3-0.2c0.1,0,0.2-0.1,0.4-0.1c0.1,0,0.1,0,0.2-0.1l0.2,0c0.1,0,0.3-0.1,0.4-0.1
		c0.1,0,0.3,0,0.4,0c0.1,0,0.3,0,0.4,0c1.1,0,2.3,0.2,3.5,0.7c0.2,0.1,0.3,0.1,0.5,0.2c0.2,0.1,0.3,0.1,0.5,0.2
		c0.2,0.1,0.3,0.1,0.5,0.2c0.2,0.1,0.3,0.2,0.5,0.3c0.3,0.2,0.6,0.3,0.9,0.5c0.4,0.3,0.9,0.5,1.3,0.8c0.1,0.1,0.2,0,0.3,0l0.3,0
		l0.5,0c0.2,0,0.4,0,0.6,0c0.4,0,0.8,0,1.1-0.1C92.5,8.1,93.3,8,94,8C95.5,7.9,96.9,7.8,98.2,7.7z"/>
	<path class="st0" d="M57.8,53.3c0.5,0.4,0.9,0.5,0.9,0.5s0-0.4-0.1-1c-0.1-0.6-0.2-1.4-0.6-2.1c-0.3-0.7-0.8-1.3-1.2-1.8
		c-0.2-0.2-0.4-0.4-0.5-0.5c-0.1-0.1-0.2-0.2-0.2-0.2s0,0.1-0.1,0.3c-0.1,0.2-0.1,0.4-0.2,0.8c-0.1,0.6,0,1.5,0.4,2.3
		C56.7,52.4,57.3,53,57.8,53.3z"/>
	<path class="st0" d="M53.3,56.8c0.1,0.2,0.2,0.3,0.2,0.3s0-0.1,0.1-0.4c0.1-0.2,0.1-0.6,0.2-1c0.2-0.8,0.4-1.9,0.6-3
		c0.2-1.2,0.3-2.3,0.3-3.1c0-0.8,0.1-1.4,0.1-1.4s-0.1,0.1-0.3,0.3c-0.2,0.2-0.4,0.4-0.7,0.8c-0.5,0.7-1.1,1.8-1.3,3.1
		c-0.2,1.3,0,2.6,0.3,3.4C53,56.2,53.2,56.5,53.3,56.8z"/>
	<path class="st0" d="M50,53c0.1-0.1,0.1-0.2,0.2-0.2c0.1-0.2,0.2-0.3,0.3-0.5c0.1-0.2,0.2-0.3,0.3-0.5c0-0.1,0.1-0.2,0.1-0.2
		c0.1-0.1,0.1-0.1,0.2-0.2c0.1-0.2,0.2-0.3,0.3-0.4c0.4-0.6,0.8-1.1,1.2-1.5c0.4-0.4,0.7-0.8,0.9-1c0.2-0.2,0.4-0.4,0.4-0.4
		s-0.2,0-0.5,0.1c-0.3,0.1-0.8,0.2-1.3,0.5c-0.6,0.3-1.2,0.6-1.8,1.2c-0.1,0.1-0.3,0.3-0.5,0.4c-0.1,0.1-0.2,0.2-0.2,0.2
		c-0.1,0.1-0.1,0.2-0.2,0.3c-0.1,0.2-0.3,0.3-0.4,0.5c-0.1,0.2-0.3,0.4-0.4,0.6c-0.1,0.1-0.1,0.2-0.2,0.3c-0.1,0.1-0.1,0.2-0.1,0.3
		c-0.1,0.2-0.2,0.4-0.3,0.6c-0.2,0.4-0.3,0.8-0.4,1.2c-0.1,0.4-0.1,0.8-0.1,1.1c0,0.4,0,0.7,0,1c0,0.6,0.2,1.1,0.2,1.4
		c0.1,0.3,0.1,0.5,0.1,0.5s0.1-0.2,0.2-0.5c0.1-0.3,0.2-0.8,0.4-1.3c0.1-0.3,0.2-0.5,0.3-0.8c0.1-0.3,0.3-0.6,0.4-0.9
		c0.2-0.3,0.3-0.6,0.5-1c0.1-0.2,0.2-0.3,0.3-0.5C49.9,53.2,49.9,53.1,50,53z"/>
	<path class="st0" d="M71.3,41.5c1.8-1.4,3-2.7,3.8-3.7c0.4-0.5,0.7-0.9,0.9-1.1c0.2-0.3,0.3-0.4,0.3-0.4s-0.1,0.1-0.4,0.3
		c-0.3,0.2-0.6,0.5-1.1,0.8c-1,0.7-2.4,1.7-4.3,2.6c-1.9,0.9-4.3,1.9-7,2.4C62,42.7,60.6,43,59.1,43c-0.7,0-1.5,0.1-2.3,0
		c-0.1,0-0.1,0-0.1,0l0,0c0,0,0,0,0,0c0,0,0,0,0,0c0,0,0,0,0,0c0,0,0,0,0-0.1l0-0.2c0.1-0.3,0.1-0.5,0.2-0.8c0.5-1.8,1-3.6,1.4-5.3
		c0.2-0.9,0.5-1.7,0.7-2.5c0.1-0.4,0.2-0.8,0.4-1.2c0.1-0.4,0.2-0.8,0.3-1.2c0.8-2.9,2.4-5.2,4.2-6.7c1.8-1.5,3.7-2.2,5-2.6
		c0.7-0.2,1.2-0.3,1.6-0.3c0.4-0.1,0.6-0.1,0.6-0.1S71,22,70.7,22c-0.4-0.1-0.9-0.1-1.7-0.1c-0.7,0-1.6,0.1-2.6,0.3
		c-1,0.2-2.2,0.6-3.4,1.3c-0.6,0.3-1.2,0.7-1.8,1.2c-0.6,0.5-1.2,1-1.7,1.6c-0.6,0.6-1,1.3-1.5,2c-0.2,0.4-0.5,0.7-0.6,1.1
		c-0.1,0.2-0.2,0.4-0.3,0.6c-0.1,0.2-0.2,0.4-0.3,0.6c-0.2,0.4-0.3,0.8-0.5,1.2c-0.2,0.4-0.3,0.8-0.5,1.2c-0.3,0.8-0.6,1.7-0.9,2.5
		c-0.6,1.7-1.2,3.5-1.7,5.4c-0.1,0.3-0.1,0.6-0.2,0.9c-0.1,0.2-0.1,0.5-0.2,0.7c-0.1,0.3-0.1,0.5-0.2,0.8c-0.2,1.1-0.4,2.1-0.5,3.2
		c0.8,0.1,1.6,0.2,2.4,0.3l0.6,0l0.6,0c0.2,0,0.4,0,0.6,0l0.5,0c0.9,0,1.8-0.1,2.6-0.3c1.7-0.3,3.3-0.7,4.7-1.2
		C67.2,44.3,69.5,42.9,71.3,41.5z"/>
	<path class="st0" d="M39.7,2.1c0.1,0.2,0.1,0.4,0.2,0.6C40,3.1,40.1,3.6,40.3,4c0.2,0.8,0.5,1.5,0.7,2.2c0.1,0.3,0.2,0.7,0.4,1
		c0.1,0.3,0.2,0.6,0.4,1l0.1,0.2l0.1,0.2c0.1,0.1,0.1,0.2,0.2,0.3c0.1,0.2,0.2,0.4,0.3,0.6c0.8,1.5,1.7,2.8,2.4,3.7
		c0.8,0.9,1.5,1.6,2,2c0.5,0.4,0.8,0.6,0.8,0.6s-0.2-0.3-0.6-0.8c-0.4-0.5-0.8-1.3-1.4-2.4c-0.5-1.1-1.1-2.4-1.5-3.9
		c-0.1-0.2-0.1-0.4-0.2-0.6c0-0.1-0.1-0.2-0.1-0.3l0-0.2l0-0.1c0-0.2-0.1-0.4-0.1-0.6c0-0.2,0-0.3,0-0.4c0-0.1,0-0.1,0-0.2l0-0.1
		l0,0c0,0,0,0,0.1,0c0.4,0.3,0.7,0.5,0.9,0.6l0,0c0,0,0,0,0,0l0,0l0.1,0l0.1,0c0.1,0.1,0.3,0.1,0.4,0.2c0.3,0.1,0.6,0.3,0.9,0.4
		c0.6,0.3,1.2,0.5,1.8,0.8c2.5,1,5.1,2.1,7.9,3c1.9,0.7,3.9,1.2,5.7,1.7c0.9,0.3,1.9,0.5,2.8,0.7c0.5,0.1,0.9,0.2,1.3,0.3
		c0.4,0.1,0.8,0.2,1.2,0.3c1.6,0.5,3,1.1,4.3,1.8c1.3,0.7,2.4,1.5,3.3,2.4c0.9,0.9,1.6,1.8,2.2,2.6c0.6,0.9,0.9,1.7,1.2,2.4
		c0.1,0.3,0.2,0.7,0.3,0.9c0.1,0.3,0.1,0.5,0.2,0.7c0.1,0.4,0.1,0.6,0.1,0.6s0-0.2,0-0.6c0-0.2,0-0.4,0-0.7c0-0.3,0-0.6-0.1-1
		c0-0.2-0.1-0.4-0.1-0.6c0-0.1,0-0.2-0.1-0.3c0-0.1-0.1-0.2-0.1-0.3c-0.1-0.2-0.1-0.5-0.2-0.7c-0.1-0.2-0.2-0.5-0.3-0.8
		c-0.4-1-1-2.2-1.8-3.4c-0.9-1.1-2-2.3-3.3-3.3c-1.3-1-2.9-1.9-4.6-2.7c-0.4-0.2-0.9-0.3-1.3-0.5c-0.4-0.2-0.9-0.3-1.3-0.5
		c-0.9-0.3-1.8-0.6-2.7-0.9C60.9,9,59,8.4,57.1,7.7c-2.7-0.9-5.4-1.8-7.9-2.6c-0.6-0.2-1.2-0.4-1.8-0.6c-0.3-0.1-0.6-0.2-0.9-0.3
		c-0.1,0-0.3-0.1-0.4-0.1l-0.2-0.1l-0.4-0.2c-0.5-0.2-1-0.4-1.5-0.6c-0.5-0.2-1-0.4-1.5-0.6c-0.9-0.4-1.9-0.7-2.7-1.1
		c0,0.1,0,0.2,0,0.2L39.7,2.1z"/>
	<path class="st0" d="M83.7,20.9c0-0.1,0-0.2,0-0.3c0-0.1,0-0.3,0-0.4c0-0.1,0-0.3,0.1-0.4c0.1-0.6,0.2-1.3,0.5-2
		c0.2-0.7,0.6-1.5,1-2.2c0.9-1.4,2-2.5,3-3.2c1-0.7,1.7-1.1,1.7-1.1s-0.2,0-0.6,0c-0.4,0-0.9,0.1-1.6,0.2c-0.6,0.2-1.4,0.5-2.2,1
		c-0.8,0.5-1.5,1.2-2.1,2.2c-0.6,0.9-0.9,2-0.9,2.9c-0.1,0.9,0,1.7,0.2,2.4c0,0.2,0.1,0.3,0.1,0.5c0,0.1,0.1,0.3,0.1,0.4
		c0,0.1,0.1,0.2,0.1,0.3c0,0.1,0.1,0.2,0.1,0.3c0.1,0.3,0.2,0.5,0.2,0.5s0-0.2,0.1-0.6C83.7,21.1,83.7,21,83.7,20.9z"/>
</g>
</svg>
