<?xml version="1.0" encoding="utf-8"?>
<!-- Generator: Adobe Illustrator 27.0.0, SVG Export Plug-In . SVG Version: 6.00 Build 0)  -->
<svg version="1.1" id="Layer_1" xmlns="http://www.w3.org/2000/svg" xmlns:xlink="http://www.w3.org/1999/xlink" x="0px" y="0px"
	 viewBox="0 0 40 40" style="enable-background:new 0 0 40 40;" xml:space="preserve">
<style type="text/css">
	.st0{fill:#FFFFFF;}
</style>
<path class="st0" d="M33.6,9.9H6.4c-1.7,0-3,1.3-3,3v14.2c0,1.7,1.3,3,3,3h27.2c1.7,0,3-1.3,3-3V12.9C36.6,11.3,35.2,9.9,33.6,9.9z
	 M35.6,27.1c0,0.4-0.1,0.7-0.3,1l-11.8-7.8l11.6-8.1c0.1-0.1,0.2-0.2,0.2-0.3c0.2,0.3,0.3,0.7,0.3,1.1V27.1z M33.6,10.9
	c0.4,0,0.8,0.1,1.1,0.4c-0.1,0-0.2,0-0.2,0.1l-14,9.8c-0.3,0.2-0.7,0.2-1,0L5.4,11.3c0,0-0.1,0-0.1-0.1C5.6,11,6,10.9,6.4,10.9H33.6
	z M4.4,12.9c0-0.4,0.1-0.7,0.3-1c0,0.1,0.1,0.2,0.2,0.2l11.7,8.2L4.9,28c-0.1,0-0.1,0.1-0.1,0.2c-0.2-0.3-0.3-0.7-0.3-1V12.9z
	 M6.4,29.1c-0.4,0-0.7-0.1-1-0.3l12-7.9l1.5,1.1c0.3,0.2,0.7,0.3,1.1,0.3c0.4,0,0.7-0.1,1.1-0.3l1.5-1.1l12,7.9
	c-0.3,0.2-0.6,0.3-1,0.3H6.4z"/>
</svg>
