<?xml version="1.0" encoding="utf-8"?>
<!-- Generator: Adobe Illustrator 27.0.0, SVG Export Plug-In . SVG Version: 6.00 Build 0)  -->
<svg version="1.1" id="Layer_1" xmlns="http://www.w3.org/2000/svg" xmlns:xlink="http://www.w3.org/1999/xlink" x="0px" y="0px"
	 viewBox="0 0 40 40" style="enable-background:new 0 0 40 40;" xml:space="preserve">
<style type="text/css">
	.st0{fill:#FFFFFF;}
</style>
<g>
	<g>
		<path class="st0" d="M35.3,35.2h-7.1V25.2c0-2.7-0.2-4.7-2.7-4.7c-2.3,0-3.2,1.3-3.2,4.6v10.2h-7.1V14.5h6.9v1.8
			c1.1-1.2,2.9-2.2,5.4-2.2c6.9,0,7.8,5,7.8,9.9V35.2z M29.2,34.2h5.1V23.9c0-5.3-1.2-8.9-6.8-8.9c-2.8,0-4.6,1.6-5.4,2.9l-0.1,0.3
			h-0.8l-0.1-0.5v-2.2h-4.9v18.7h5.1V25c0-1.5,0-5.6,4.2-5.6c3.7,0,3.7,3.6,3.7,5.7V34.2z M12.3,35.2H5.2V14.5h7.1V35.2z M6.2,34.2
			h5.1V15.5H6.2V34.2z M8.8,12.9c-2.2,0-4.1-1.8-4.1-4.1c0-2.2,1.8-4,4.1-4c2.2,0,4,1.8,4,4C12.8,11,11,12.9,8.8,12.9z M8.8,5.8
			c-1.7,0-3.1,1.4-3.1,3c0,1.7,1.4,3.1,3.1,3.1c1.7,0,3-1.4,3-3.1C11.8,7.1,10.5,5.8,8.8,5.8z"/>
	</g>
</g>
</svg>
