<?xml version="1.0" encoding="utf-8"?>
<!-- Generator: Adobe Illustrator 27.0.0, SVG Export Plug-In . SVG Version: 6.00 Build 0)  -->
<svg version="1.1" id="Layer_1" xmlns="http://www.w3.org/2000/svg" xmlns:xlink="http://www.w3.org/1999/xlink" x="0px" y="0px"
	 viewBox="0 0 40 40" style="enable-background:new 0 0 40 40;" xml:space="preserve">
<style type="text/css">
	.st0{fill:#FFFFFF;}
</style>
<g>
	<g>
		<path class="st0" d="M20.9,35.5h-5.4c-0.5,0-0.9-0.4-0.9-0.9V20.4h-2.2c-0.5,0-0.9-0.4-0.9-0.9v-4.4c0-0.5,0.4-0.9,0.9-0.9h2.2
			v-3.8c0-3.2,2.6-5.9,5.9-5.9h5.1c0.5,0,0.9,0.4,0.9,0.9v4.4c0,0.5-0.4,0.9-0.9,0.9h-3c-0.5,0-0.8,0.4-0.8,0.8v2.6h3.8
			c0.2,0,0.5,0.1,0.6,0.3c0.2,0.2,0.2,0.4,0.2,0.7l-0.4,4.4c0,0.5-0.4,0.8-0.9,0.8h-3.4v14.2C21.8,35.1,21.4,35.5,20.9,35.5z
			 M15.7,34.5h5.1V19.4h4.3l0.4-4.2h-4.6v-3.6c0-1,0.8-1.8,1.8-1.8h2.9V5.5h-5c-2.7,0-4.9,2.2-4.9,4.9v4.8h-3.1v4.2h3.1V34.5z"/>
	</g>
</g>
</svg>
