<?xml version="1.0" encoding="utf-8"?>
<!-- Generator: Adobe Illustrator 27.0.0, SVG Export Plug-In . SVG Version: 6.00 Build 0)  -->
<svg version="1.1" id="Layer_1" xmlns="http://www.w3.org/2000/svg" xmlns:xlink="http://www.w3.org/1999/xlink" x="0px" y="0px"
	 viewBox="0 0 40 40" style="enable-background:new 0 0 40 40;" xml:space="preserve">
<style type="text/css">
	.st0{fill:#FFFFFF;}
</style>
<path class="st0" d="M20,3.6C11,3.6,3.6,11,3.6,20c0,9,7.4,16.4,16.4,16.4S36.4,29,36.4,20C36.4,11,29,3.6,20,3.6z M35.4,20
	c0,0.8-0.1,1.6-0.2,2.4l-3.7-0.7c0.1-0.6,0.1-1.1,0.1-1.7c0-0.4,0-0.9-0.1-1.3l3.7-0.7C35.3,18.7,35.4,19.3,35.4,20z M4.6,20
	c0-0.8,0.1-1.6,0.2-2.4l3.7,0.7c-0.1,0.6-0.1,1.1-0.1,1.7c0,0.4,0,0.9,0.1,1.3L4.7,22C4.7,21.3,4.6,20.7,4.6,20z M26.9,18.4l3.3-1.1
	c0.2,0.9,0.4,1.8,0.4,2.7c0,1-0.1,1.9-0.4,2.8l-3.3-1.1c0.1-0.5,0.2-1.1,0.2-1.7C27.1,19.4,27.1,18.9,26.9,18.4z M30.4,14.8l3.3-1.9
	c0.7,1.3,1.2,2.7,1.4,4.1l-3.7,0.7C31.2,16.7,30.8,15.7,30.4,14.8z M29.9,16.3l-3.3,1.1c-0.4-1.1-1.1-2-1.9-2.8l2.1-2.8
	C28.2,13,29.3,14.6,29.9,16.3z M20.6,30.6v-3.5c1.2-0.1,2.3-0.5,3.2-1.1l2,2.8C24.4,29.8,22.6,30.5,20.6,30.6z M14.3,28.9l2-2.8
	c1,0.6,2.1,1,3.3,1v3.5C17.7,30.5,15.8,29.9,14.3,28.9z M20,26.1c-3.4,0-6.1-2.8-6.1-6.1s2.8-6.1,6.1-6.1s6.1,2.8,6.1,6.1
	S23.4,26.1,20,26.1z M9.4,20c0-1,0.1-2,0.4-2.9l3.3,1.1c-0.2,0.6-0.2,1.2-0.2,1.8c0,0.6,0.1,1.2,0.2,1.7l-3.3,1.1
	C9.5,21.9,9.4,21,9.4,20z M19.7,9.4v3.5c-1.2,0.1-2.3,0.4-3.3,1l-2-2.8C15.9,10.1,17.7,9.5,19.7,9.4z M26,11.2l-2,2.8
	c-0.9-0.6-2-1-3.2-1.1V9.4C22.6,9.6,24.4,10.2,26,11.2z M24.6,9.4l1.3-3.6c1.4,0.6,2.6,1.3,3.7,2.2l-2.4,2.9
	C26.4,10.3,25.6,9.8,24.6,9.4z M23.7,9c-0.9-0.3-1.9-0.5-3-0.6V4.6C22.2,4.7,23.6,5,25,5.5L23.7,9z M19.7,8.4c-1,0-2,0.2-3,0.5
	l-1.3-3.6c1.4-0.4,2.8-0.7,4.3-0.7V8.4z M15.8,9.2c-1,0.4-1.8,0.9-2.7,1.5l-2.4-2.9c1.1-0.9,2.4-1.6,3.8-2.1L15.8,9.2z M13.5,11.6
	l2,2.8c-0.9,0.7-1.7,1.7-2.1,2.8l-3.3-1.1C10.8,14.4,12,12.8,13.5,11.6z M8.7,17.3L5,16.6c0.3-1.4,0.8-2.8,1.5-4.1l3.3,1.9
	C9.3,15.3,9,16.3,8.7,17.3z M8.6,22.3c0.2,1,0.6,2,1,2.9l-3.3,1.9c-0.7-1.3-1.2-2.7-1.4-4.1L8.6,22.3z M10.1,23.8l3.3-1.1
	c0.5,1.1,1.2,2.1,2.1,2.8l-2,2.8C11.9,27.1,10.8,25.6,10.1,23.8z M15.4,30.6l-1.3,3.6c-1.4-0.6-2.6-1.3-3.7-2.2l2.4-2.9
	C13.6,29.7,14.4,30.2,15.4,30.6z M16.3,31c0.9,0.3,1.9,0.5,3,0.6v3.8c-1.5-0.1-2.9-0.3-4.3-0.8L16.3,31z M20.3,31.6c1,0,2-0.2,3-0.5
	l1.3,3.6c-1.4,0.4-2.8,0.7-4.3,0.7V31.6z M24.2,30.8c1-0.4,1.8-0.9,2.7-1.5l2.4,2.9c-1.1,0.9-2.4,1.6-3.8,2.1L24.2,30.8z M26.7,28.2
	l-2-2.8c0.9-0.7,1.5-1.7,2-2.7l3.3,1.1C29.2,25.5,28.1,27,26.7,28.2z M31.3,22.7l3.7,0.7c-0.3,1.4-0.8,2.8-1.5,4.1l-3.3-1.9
	C30.7,24.7,31,23.7,31.3,22.7z M33.2,12.1l-3.3,1.9c-0.5-0.9-1.2-1.7-1.9-2.4l2.4-2.9C31.5,9.7,32.4,10.8,33.2,12.1z M9.9,8.4
	l2.4,2.9c-0.8,0.7-1.4,1.4-2,2.3l-3.3-1.9C7.8,10.5,8.8,9.4,9.9,8.4z M6.8,27.9l3.3-1.9c0.5,0.9,1.2,1.7,1.9,2.4l-2.4,2.9
	C8.5,30.3,7.6,29.2,6.8,27.9z M30.1,31.6l-2.4-2.9c0.8-0.7,1.4-1.4,2-2.3l3.3,1.9C32.2,29.5,31.2,30.6,30.1,31.6z"/>
</svg>
