<?xml version="1.0" encoding="utf-8"?>
<!-- Generator: Adobe Illustrator 27.0.0, SVG Export Plug-In . SVG Version: 6.00 Build 0)  -->
<svg version="1.1" id="Layer_1" xmlns="http://www.w3.org/2000/svg" xmlns:xlink="http://www.w3.org/1999/xlink" x="0px" y="0px"
	 viewBox="0 0 50.2 50.2" style="enable-background:new 0 0 50.2 50.2;" xml:space="preserve">
<g>
	<g>
		<g>
			<path d="M25.1,46.8c-12,0-21.8-9.8-21.8-21.8S13.1,3.3,25.1,3.3s21.8,9.8,21.8,21.8S37.1,46.8,25.1,46.8z M25.1,4.8
				c-11.2,0-20.2,9.1-20.2,20.2s9.1,20.2,20.2,20.2s20.2-9.1,20.2-20.2S36.2,4.8,25.1,4.8z" fill="rgb(144, 238, 144)" />
		</g>
	</g>
	<g>
		<path d="M20.3,35c-0.2,0-0.4-0.1-0.5-0.2l-9.2-9.2c-0.3-0.3-0.3-0.8,0-1.1s0.8-0.3,1.1,0l8.7,8.7l16.6-16.6c0.3-0.3,0.8-0.3,1.1,0
			s0.3,0.8,0,1.1L20.8,34.8C20.7,34.9,20.5,35,20.3,35z" fill="rgb(144, 238, 144)" />
	</g>
</g>
</svg>
