<?xml version="1.0" encoding="utf-8"?>
<!-- Generator: Adobe Illustrator 27.0.0, SVG Export Plug-In . SVG Version: 6.00 Build 0)  -->
<svg version="1.1" id="Layer_1" xmlns="http://www.w3.org/2000/svg" xmlns:xlink="http://www.w3.org/1999/xlink" x="0px" y="0px"
	 viewBox="0 0 50.2 50.2" style="enable-background:new 0 0 50.2 50.2;" xml:space="preserve">
<g>
	<path d="M25.1,3.3c-12,0-21.8,9.8-21.8,21.8s9.8,21.8,21.8,21.8s21.8-9.8,21.8-21.8S37.1,3.3,25.1,3.3z M25.1,45.3
		c-11.2,0-20.2-9.1-20.2-20.2S13.9,4.8,25.1,4.8s20.2,9.1,20.2,20.2S36.2,45.3,25.1,45.3z" fill="rgb(255, 99, 71)" />
	<path d="M36.1,14c-0.3-0.3-0.8-0.3-1.1,0l-10,10l-10-10c-0.3-0.3-0.8-0.3-1.1,0s-0.3,0.8,0,1.1l10,10L14,35c-0.3,0.3-0.3,0.8,0,1.1
		c0.1,0.1,0.3,0.2,0.5,0.2s0.4-0.1,0.5-0.2l10-10l10,10c0.1,0.1,0.3,0.2,0.5,0.2s0.4-0.1,0.5-0.2c0.3-0.3,0.3-0.8,0-1.1l-10-10
		l10-10C36.4,14.8,36.4,14.3,36.1,14z" fill="rgb(255, 99, 71)" />
</g>

</svg>
